<svg id="Layer_1" data-name="Layer 1" xmlns="http://www.w3.org/2000/svg" viewBox="0 0 32 32"><defs><style>.cls-1{fill:#e46a2a}</style></defs><path class="cls-1" d="M15.61 19.52a.71.71 0 00-.58-.25.7.7 0 00-.54.35l-2 3.74a1.9 1.9 0 00.51 2.55 1.93 1.93 0 001.47.29 1.9 1.9 0 001.24-.94l1.48-3.14a.67.67 0 00-.08-.71zm-1.08 5.12a.51.51 0 01-.33.24.49.49 0 01-.41-.08.55.55 0 01-.16-.75l1.55-2.86.61.76z"/><path class="cls-1" d="M23.18 12.63a.85.85 0 00-1.18 0l-.71.71-1.16-1.16a1.12 1.12 0 000-.2 3.46 3.46 0 00-.66-1.23 2.55 2.55 0 00.87-1.92 2.59 2.59 0 10-5.17 0A2.55 2.55 0 0016 10.7l-1.32.81a4.24 4.24 0 00-1.22 1l-.28.4a17.27 17.27 0 00-1 1.56 1.94 1.94 0 00.57 2.53 1.63 1.63 0 00.19.09l-.84 1.47-1.39-.78a1.82 1.82 0 00-1.39-.17 1.84 1.84 0 00-1.1.87l-1.86 3.31a1.82 1.82 0 00.7 2.49l1.31.72v.07a.68.68 0 00.59 1 .68.68 0 00.58-.34l5-8.66a.66.66 0 00.54-.34c.13-.23.24-.42.34-.61v1.6a.68.68 0 00.14.42l2.1 2.63a.57.57 0 01.12.15L20 25.24a1.78 1.78 0 001.11.79 2.38 2.38 0 00.58.08 1.62 1.62 0 00.81-.21 1.82 1.82 0 00.78-2.28l-2.56-4.74-.62-1v-1l.27.27a1.62 1.62 0 001.12.46 1.63 1.63 0 001.14-.53 1.75 1.75 0 00.36-1.63l.88-.87a.85.85 0 000-1.18zm-5.44-5a1.24 1.24 0 11-1.24 1.2 1.24 1.24 0 011.24-1.24zM7.64 23.24a.71.71 0 01-.3-.38.66.66 0 01.06-.48l1.87-3.32a.58.58 0 01.38-.3.62.62 0 01.48 0l1.37.77L9 24zm14.48 1a.62.62 0 01-.29.48.82.82 0 01-.61-.14l-2.29-4.29a2.09 2.09 0 00-.3-.42l-1.9-2.38v-3a.74.74 0 00-.36-.79.9.9 0 00-1 .21 2.9 2.9 0 00-.81 1c-.13.24-.24.42-.34.61l-.1.17-.07.08a.37.37 0 01-.24.18.37.37 0 01-.29-.05.6.6 0 01-.2-.77c.17-.32.65-1 .94-1.41a4.47 4.47 0 00.29-.43 6.18 6.18 0 01.87-.63l2-1.25a1.55 1.55 0 00.31 0 1.92 1.92 0 00.41-.05 2.16 2.16 0 01.62.84v5.84a.75.75 0 00.1.36l.7 1.13zm-.44-8.09a.22.22 0 01-.16.08.23.23 0 01-.16-.07L20.13 15v-.87l1.54 1.54a.39.39 0 01.01.5zm.84-1.6l-.52-.5.59-.6.52.53z"/></svg>