<svg id="Layer_1" data-name="Layer 1" xmlns="http://www.w3.org/2000/svg" viewBox="0 0 32 32"><defs><style>.cls-1{fill:#e46a2a}</style></defs><path class="cls-1" d="M23.63 18.83a1.5 1.5 0 00-.37 0v-7.4a2.94 2.94 0 00-2.94-2.94h-.74v-.64A1.63 1.63 0 0018 6.22h-3.7a1.64 1.64 0 00-1.64 1.63v.68h-.85a2.94 2.94 0 00-2.93 2.94v7.4a1.58 1.58 0 00-.38 0 1.7 1.7 0 00-1.7 1.7v3.55a1.7 1.7 0 001.7 1.7h12.14a.76.76 0 00.16 0h2.9a1.71 1.71 0 001.71-1.7v-3.59a1.77 1.77 0 00-1.78-1.7zm-11.82 5.62a1.6 1.6 0 01-1.6-1.6V15.2a2.74 2.74 0 001.31.51v.59a1.32 1.32 0 002.63 0v-.56h4v.56a1.32 1.32 0 002.63 0v-.6a2.78 2.78 0 001.2-.49v7.64a1.61 1.61 0 01-1.61 1.6zM19 9.87h.81v6.43a.41.41 0 01-.81 0zm-.91 5h-4v-5h4zm-4.86-5v6.43a.41.41 0 01-.41.4.4.4 0 01-.4-.4V9.87zm8.69 1.6v2.37a1.83 1.83 0 01-1.2.93V9.93a1.6 1.6 0 011.21 1.54zM14 7.85a.3.3 0 01.3-.3H18a.31.31 0 01.3.3v.68H14zM11.52 9.9v4.9a1.83 1.83 0 01-1.31-1v-2.33a1.61 1.61 0 011.31-1.57zM8.13 24.08v-3.55a.38.38 0 01.75 0v2.32a2.92 2.92 0 00.48 1.6H8.5a.38.38 0 01-.37-.37zm15.94 0a.38.38 0 01-.37.37h-.92a2.92 2.92 0 00.48-1.6v-2.32a.38.38 0 01.37-.37.45.45 0 01.44.37z"/><path class="cls-1" d="M20.46 20.29a.46.46 0 00-.46-.45h-7.75a.46.46 0 00-.46.45V22a1.38 1.38 0 001.38 1.38h5.91A1.38 1.38 0 0020.46 22zM19.55 22a.47.47 0 01-.47.46h-5.91a.47.47 0 01-.47-.46v-1.2h6.85z"/></svg>