<svg id="Layer_1" data-name="Layer 1" xmlns="http://www.w3.org/2000/svg" viewBox="0 0 32 32"><defs><style>.cls-1{fill:#e46a2a}</style></defs><path class="cls-1" d="M26 22.6a3.51 3.51 0 00-2 .6 2.26 2.26 0 01-.84.36l2.35-6.65a.69.69 0 00-.39-.87l-2-.86v-4.4A1.89 1.89 0 0021.2 8.9h-9.87a1.88 1.88 0 00-1.88 1.88v4.4l-2 .86a.68.68 0 00-.38.88l2.5 6.68h-.11a2.07 2.07 0 01-1.29-.4 3.5 3.5 0 00-2-.6.7.7 0 100 1.39 2.08 2.08 0 011.28.4 3.44 3.44 0 002 .6 3.44 3.44 0 002-.6 2.28 2.28 0 012.58 0 3.67 3.67 0 004 0 2.14 2.14 0 011.3-.4 2.11 2.11 0 011.29.4 3.55 3.55 0 001.44.55h.06a3.91 3.91 0 00.51 0 3.5 3.5 0 002-.6A2.11 2.11 0 0126 24a.7.7 0 100-1.39zm-2.47-4.29L17 15.54v-1.47l7 3zm-12.69-7.53a.49.49 0 01.49-.49h9.87a.5.5 0 01.5.49v3.81l-5.16-2.21a.81.81 0 00-.27-.05.76.76 0 00-.27.05l-5.16 2.2zm4.73 3.29v1.47l-6.52 2.75-.47-1.24zm3.8 8.53a3.51 3.51 0 00-2 .6 2.3 2.3 0 01-2.59 0 3.51 3.51 0 00-2-.6 3.34 3.34 0 00-1.88.53l-1.51-3.95 6.18-2.61v4.14a.7.7 0 101.39 0v-4.14l6.23 2.64-1.48 4.18c-.11-.05-.21-.12-.33-.19a3.51 3.51 0 00-2.01-.6z"/><path class="cls-1" d="M21 11.31a.48.48 0 00-.47-.48H12a.49.49 0 00-.48.48.48.48 0 00.48.47h8.55a.47.47 0 00.45-.47z"/></svg>