<svg data-name="Layer 1" xmlns="http://www.w3.org/2000/svg" viewBox="0 0 32 32"><path d="M24.79 15.15h-1.54l-3.35-4.92a3 3 0 00-2.45-1.3h-6.64a2.79 2.79 0 00-2.68 2L7 15.17a2.35 2.35 0 00-2.1 2.33v1.78a2.36 2.36 0 002.36 2.36h.65a2.92 2.92 0 005.71 0h5.24a2.92 2.92 0 005.71 0h.27a2.36 2.36 0 002.36-2.36V17.5a2.36 2.36 0 00-2.41-2.35zm-6-4.19l2.86 4.19H15v-4.92h2.49a1.65 1.65 0 011.33.77zm-9.44.36a1.5 1.5 0 011.43-1.09h2.85v4.92H8.31zm-2.14 5.13h17.58a1 1 0 011 1H6.17a1 1 0 011.04-1zm.65 3.89h-.65a1.06 1.06 0 01-1.06-1.06v-.57h2.74a2.91 2.91 0 00-1.03 1.63zm2.85 2.41A1.76 1.76 0 1112.47 21a1.76 1.76 0 01-1.76 1.75zm8.1-2.41h-5.24a2.91 2.91 0 00-1-1.63h7.3a2.91 2.91 0 00-1.06 1.63zm2.85 2.41A1.76 1.76 0 1123.42 21a1.76 1.76 0 01-1.76 1.75zm3.13-2.41h-.27a2.93 2.93 0 00-1-1.63h2.37v.57a1.06 1.06 0 01-1.1 1.06z" fill="#e46a2a"/></svg>