<svg id="Layer_1" data-name="Layer 1" xmlns="http://www.w3.org/2000/svg" viewBox="0 0 32 32"><defs><style>.cls-1{fill:#e46a2a}</style></defs><path class="cls-1" d="M22.41 11.08l-3.79-3.79A1.14 1.14 0 0017.8 7h-6.69A1.15 1.15 0 0010 8.11v16.18a1.16 1.16 0 001.16 1.15h10.43a1.15 1.15 0 001.15-1.15V11.9a1.18 1.18 0 00-.33-.82zm-1 13.06H11.25V8.26h6.49l3.7 3.7z"/><path class="cls-1" d="M12.5 16.34v5.55A1.07 1.07 0 0013.57 23h5.55a1.07 1.07 0 001.07-1.07v-5.59a1.07 1.07 0 00-1.07-1.07h-5.55a1.07 1.07 0 00-1.07 1.07zm1.31.23h1v1.54a.37.37 0 00.37.37.38.38 0 00.38-.37v-1.54h1.66v1.54a.38.38 0 00.75 0v-1.54h1v5.09h-1V20a.38.38 0 10-.75 0v1.63h-1.7V20a.38.38 0 00-.38-.38.37.37 0 00-.37.38v1.63h-1z"/></svg>