<svg data-name="Layer 1" xmlns="http://www.w3.org/2000/svg" viewBox="0 0 32 32"><path d="M23.56 18a13.41 13.41 0 00.11-1.68 9.46 9.46 0 00-.73-3.9h1.11a1.72 1.72 0 001.71-1.72 1.84 1.84 0 00-1.84-1.8H10.69a4.38 4.38 0 00-4.38 4.37V21a.69.69 0 00.7.69h.37a3 3 0 005.89 0h6.83a2.35 2.35 0 004.7 0h.56a.69.69 0 00.69-.69.53.53 0 000-.12A3.06 3.06 0 0023.56 18zm1.08 2.23h-1.7a5 5 0 00.36-1 1.72 1.72 0 011.34 1.03zm-16.75 0a2.53 2.53 0 014.88 0zm2.46-7.81a2.07 2.07 0 00-.24 1V17a3.91 3.91 0 00-2.41 1v-4.73a3.12 3.12 0 01.13-.82zm.71 4.64v-3.65a1.16 1.16 0 01.53-1h1.51V16a2 2 0 002 2h.52v2.25h-1.43a3.93 3.93 0 00-3.13-3.16zm5.51.92h.62a.47.47 0 000-.94h-2.08A1.07 1.07 0 0114 16v-3.55h4.82v7.81h-2.25zm3.68-2.19h2v.53c0 2.62-.8 3.87-1.06 3.91h-1zm1-3.37c.2 0 .74.82 1 2.42h-2v-2.39h1zm2.71-2.16a.45.45 0 01.45.44.33.33 0 01-.32.33H8.7a2.94 2.94 0 012-.77zM10.33 22.6a1.64 1.64 0 01-1.49-1h3a1.63 1.63 0 01-1.51 1zm12.12 0a1 1 0 01-1-1h1.92a1 1 0 01-.92 1z" fill="#e46a2a"/></svg>